<?xml version="1.0" encoding="UTF-8"?>
<svg xmlns="http://www.w3.org/2000/svg" xmlns:xlink="http://www.w3.org/1999/xlink" width="48pt" height="48pt" viewBox="0 0 48 48" version="1.1">
<g id="surface8004213">
<path style=" stroke:none;fill-rule:nonzero;fill:rgb(14.509804%,14.509804%,54.901961%);fill-opacity:1;" d="M 6.125 47.519531 C 3.007812 47.519531 0.480469 44.992188 0.480469 41.875 L 0.480469 6.125 C 0.480469 3.007812 3.007812 0.480469 6.125 0.480469 L 41.875 0.480469 C 44.992188 0.480469 47.519531 3.007812 47.519531 6.125 L 47.519531 41.875 C 47.519531 44.992188 44.992188 47.519531 41.875 47.519531 Z M 40.914062 46.558594 C 44.03125 46.558594 46.558594 44.03125 46.558594 40.914062 L 46.558594 7.085938 C 46.558594 3.96875 44.03125 1.441406 40.914062 1.441406 L 7.085938 1.441406 C 3.96875 1.441406 1.441406 3.96875 1.441406 7.085938 L 1.441406 40.914062 C 1.441406 44.03125 3.96875 46.558594 7.085938 46.558594 Z M 40.914062 46.558594 "/>
<path style=" stroke:none;fill-rule:nonzero;fill:rgb(0%,0%,0%);fill-opacity:1;" d="M 5.761719 8.800781 L 5.761719 11.839844 L 42.238281 11.839844 L 42.238281 8.800781 Z M 5.761719 22.480469 L 5.761719 25.519531 L 42.238281 25.519531 L 42.238281 22.480469 Z M 5.761719 36.160156 L 5.761719 39.199219 L 42.238281 39.199219 L 42.238281 36.160156 Z M 5.761719 36.160156 "/>
</g>
</svg>
